<svg width="256" height="36" viewBox="0 0 256 36" fill="none" xmlns="http://www.w3.org/2000/svg">
<path fill-rule="evenodd" clip-rule="evenodd" d="M50.6113 2.97021V27.7227H55.9255V15.3283L64.6939 27.3465H64.7698L73.8799 14.509V27.7227H79.3839V2.97021H76.3499L64.8211 18.8226L53.543 2.97021H50.6113ZM85.5064 27.2712C86.7717 27.8732 88.1761 28.1742 89.7198 28.1742C90.7067 28.1742 91.5544 28.0237 92.263 27.7227C92.9969 27.4468 93.6042 27.1207 94.085 26.7445C94.5911 26.3432 94.9707 26.0045 95.2238 25.7286C95.2367 25.7133 95.2493 25.6983 95.2617 25.6837V27.7227H100.576V11.2811H95.6413L95.2974 12.9593C94.753 12.3429 94.0705 11.7835 93.2499 11.2811C92.4148 10.7293 91.1748 10.4534 89.53 10.4534C88.1382 10.4534 86.8223 10.8296 85.5823 11.5821C84.3423 12.3095 83.3427 13.3504 82.5836 14.7049C81.8244 16.0593 81.4448 17.6646 81.4448 19.5207C81.4448 21.5022 81.8118 23.1326 82.5456 24.4118C83.2795 25.691 84.2664 26.6441 85.5064 27.2712ZM92.9462 23.6217C92.4401 23.7973 91.8708 23.8851 91.2381 23.8851C90.4536 23.8851 89.7198 23.6844 89.0365 23.2831C88.3786 22.8818 87.8471 22.3299 87.4423 21.6276C87.0374 20.9253 86.8349 20.1352 86.8349 19.2573C86.8349 18.3795 87.0247 17.6019 87.4043 16.9247C87.7839 16.2474 88.29 15.7207 88.9226 15.3445C89.5806 14.9432 90.2891 14.7425 91.0483 14.7425C91.7316 14.7425 92.3516 14.8554 92.9083 15.0811C93.465 15.2818 93.9458 15.5828 94.3507 15.9841C94.7556 16.3603 95.0593 16.8243 95.2617 17.3762V21.4019C94.9833 21.9537 94.6544 22.4177 94.2748 22.794C93.8952 23.1451 93.4524 23.421 92.9462 23.6217ZM107.838 35.4732C108.875 35.8243 110.141 35.9999 111.634 35.9999C113.456 35.9999 115.113 35.6362 116.606 34.9088C118.125 34.2065 119.339 33.2283 120.25 31.9742C121.161 30.7451 121.617 29.328 121.617 27.7227V11.2811H116.72L116.314 12.5685C115.783 11.9796 114.995 11.4877 113.949 11.093C112.912 10.6666 111.672 10.4534 110.229 10.4534C108.787 10.4534 107.42 10.8422 106.13 11.6197C104.839 12.3973 103.789 13.4633 102.979 14.8177C102.169 16.1471 101.764 17.6771 101.764 19.4078C101.764 21.0884 102.144 22.5933 102.903 23.9227C103.662 25.227 104.675 26.2679 105.94 27.0455C107.23 27.7979 108.622 28.1742 110.115 28.1742C111.836 28.1742 113.228 27.8606 114.291 27.2336C115.204 26.6729 115.875 26.0381 116.303 25.3291V27.6474C116.303 28.4752 116.075 29.1649 115.619 29.7167C115.189 30.2686 114.607 30.6824 113.873 30.9583C113.165 31.2593 112.393 31.4098 111.558 31.4098C110.292 31.4098 109.268 31.159 108.483 30.6573C107.724 30.1808 107.053 29.6791 106.471 29.1524L103.359 32.7643C103.915 33.2158 104.548 33.6923 105.257 34.194C105.965 34.6956 106.826 35.122 107.838 35.4732ZM107.724 21.6276C107.319 20.9253 107.117 20.1352 107.117 19.2573C107.117 18.3795 107.319 17.6019 107.724 16.9247C108.129 16.2474 108.673 15.7207 109.356 15.3445C110.065 14.9432 110.849 14.7425 111.71 14.7425C112.443 14.7425 113.101 14.8554 113.683 15.0811C114.291 15.2818 114.822 15.5828 115.278 15.9841C115.733 16.3603 116.075 16.8243 116.303 17.3762V21.4019C115.999 21.9537 115.619 22.4177 115.164 22.794C114.734 23.1451 114.227 23.421 113.645 23.6217C113.089 23.7973 112.443 23.8851 111.71 23.8851C110.849 23.8851 110.065 23.6844 109.356 23.2831C108.673 22.8818 108.129 22.3299 107.724 21.6276ZM129.272 13.8986L128.9 11.2811H124.079V27.7227H129.393V21.0257C129.393 19.8468 129.558 18.8059 129.887 17.9029C130.215 16.9999 130.684 16.2851 131.291 15.7583C131.898 15.2316 132.607 14.9682 133.417 14.9682C134.277 14.9682 134.884 15.194 135.239 15.6455C135.618 16.0719 135.821 16.6488 135.846 17.3762V27.7227H141.16V15.4197C141.135 13.9649 140.591 12.7861 139.528 11.8831C138.49 10.955 137.187 10.491 135.618 10.491C134.075 10.491 132.771 10.8171 131.709 11.4692C130.664 12.0853 129.852 12.8951 129.272 13.8986ZM146.619 27.0455C148.036 27.7979 149.757 28.1742 151.781 28.1742C152.692 28.1742 153.654 28.0237 154.666 27.7227C155.703 27.4217 156.665 27.0204 157.551 26.5187L155.197 22.6059C154.666 22.9319 154.122 23.1953 153.565 23.396C153.034 23.5966 152.477 23.6969 151.895 23.6969C151.085 23.6969 150.351 23.5214 149.693 23.1702C149.27 22.9444 148.905 22.6511 148.597 22.2903L160.739 18.4672C160.284 15.8837 159.284 13.9148 157.741 12.5603C156.222 11.1808 154.274 10.491 151.895 10.491C150.124 10.491 148.517 10.8923 147.074 11.695C145.632 12.4725 144.48 13.526 143.62 14.8554C142.76 16.1847 142.329 17.6771 142.329 19.3326C142.329 21.0633 142.696 22.5933 143.43 23.9227C144.164 25.2521 145.227 26.293 146.619 27.0455ZM147.575 19.3642C147.57 19.2553 147.568 19.1444 147.568 19.0316C147.568 18.1286 147.72 17.3511 148.023 16.6989C148.352 16.0217 148.808 15.5075 149.39 15.1564C149.997 14.7801 150.693 14.592 151.477 14.592C152.515 14.592 153.287 14.8428 153.793 15.3445C154.294 15.7943 154.65 16.3223 154.858 16.9285L147.575 19.3642ZM168.475 4.05734H163.161V11.2059H160.579V15.3068H163.161V27.7227H168.475V15.3068H172.498V11.2059H168.475V4.05734Z" fill="black"/>
<path fill-rule="evenodd" clip-rule="evenodd" d="M182.016 1.97998V27.7226H200.654V22.4552H187.52V1.97998H182.016ZM222.783 1.97998V27.7226H228.098V26.0685C228.706 26.635 229.39 27.1111 230.147 27.4968C231.109 27.9483 232.286 28.174 233.678 28.174C235.196 28.174 236.613 27.8103 237.929 27.0829C239.245 26.3556 240.295 25.3146 241.079 23.9602C241.889 22.6057 242.294 21.0004 242.294 19.1443C242.294 17.2882 241.927 15.7206 241.193 14.4414C240.485 13.1371 239.536 12.1463 238.346 11.4691C237.157 10.7919 235.841 10.4532 234.399 10.4532C233.007 10.4532 231.767 10.6414 230.679 11.0176C229.591 11.3938 228.718 11.8579 228.06 12.4097V1.97998H222.783ZM205.235 27.2711C206.5 27.873 207.905 28.174 209.448 28.174C210.435 28.174 211.283 28.0235 211.991 27.7226C212.725 27.4466 213.333 27.1206 213.813 26.7443C214.32 26.343 214.699 26.0044 214.952 25.7285C214.965 25.7131 214.978 25.6982 214.99 25.6836V27.7226H220.304V11.281H215.37L215.026 12.9592C214.481 12.3428 213.799 11.7833 212.978 11.281C212.143 10.7292 210.903 10.4532 209.258 10.4532C207.867 10.4532 206.551 10.8295 205.311 11.582C204.071 12.3094 203.071 13.3503 202.312 14.7047C201.553 16.0592 201.173 17.6645 201.173 19.5206C201.173 21.5021 201.54 23.1325 202.274 24.4117C203.008 25.6909 203.995 26.644 205.235 27.2711ZM212.675 23.6216C212.169 23.7971 211.599 23.8849 210.967 23.8849C210.182 23.8849 209.448 23.6843 208.765 23.2829C208.107 22.8816 207.576 22.3298 207.171 21.6275C206.766 20.9252 206.563 20.1351 206.563 19.2572C206.563 18.3793 206.753 17.6018 207.133 16.9245C207.512 16.2473 208.018 15.7206 208.651 15.3443C209.309 14.943 210.018 14.7424 210.777 14.7424C211.46 14.7424 212.08 14.8552 212.637 15.081C213.193 15.2816 213.674 15.5826 214.079 15.9839C214.484 16.3602 214.788 16.8242 214.99 17.376V21.4018C214.712 21.9536 214.383 22.4176 214.003 22.7938C213.624 23.145 213.181 23.4209 212.675 23.6216ZM234.664 23.1325C234.007 23.5338 233.285 23.7344 232.501 23.7344C231.818 23.7344 231.198 23.6466 230.641 23.4711C230.084 23.2704 229.591 22.9945 229.16 22.6433C228.756 22.2671 228.401 21.8031 228.098 21.2513V17.2255C228.325 16.6737 228.642 16.2097 229.047 15.8334C229.477 15.4321 229.983 15.1311 230.565 14.9305C231.172 14.7047 231.818 14.5919 232.501 14.5919C233.285 14.5919 234.007 14.7925 234.664 15.1938C235.348 15.5701 235.892 16.0968 236.297 16.774C236.702 17.4513 236.904 18.2288 236.904 19.1067C236.904 19.9846 236.702 20.7747 236.297 21.477C235.892 22.1793 235.348 22.7311 234.664 23.1325ZM245.03 27.3463C246.219 27.8229 247.497 28.0612 248.864 28.0612C250.483 28.0612 251.812 27.7853 252.849 27.2334C253.912 26.6816 254.697 25.9668 255.203 25.0889C255.734 24.1859 256 23.2328 256 22.2295C256 21.4018 255.836 20.6995 255.507 20.1226C255.203 19.5206 254.76 19.0064 254.178 18.58C253.596 18.1536 252.9 17.815 252.09 17.5641C251.508 17.3635 250.914 17.1879 250.306 17.0374C249.699 16.8869 249.193 16.6737 248.788 16.3978C248.408 16.1219 248.231 15.7457 248.256 15.2691C248.256 15.0433 248.345 14.8301 248.522 14.6295C248.699 14.4288 248.94 14.2658 249.243 14.1404C249.572 14.015 249.965 13.9648 250.42 13.9899C250.926 14.015 251.47 14.1655 252.052 14.4414C252.66 14.6922 253.204 15.0057 253.685 15.382L255.696 12.2968C254.836 11.6697 253.925 11.2183 252.963 10.9424C252.002 10.6664 250.825 10.5285 249.433 10.5285C247.89 10.5285 246.624 10.8169 245.637 11.3938C244.676 11.9457 243.967 12.648 243.512 13.5008C243.081 14.3285 242.866 15.1562 242.866 15.9839C242.866 17.0625 243.195 18.0658 243.853 18.9938C244.537 19.8968 245.637 20.5866 247.156 21.0631C247.763 21.2387 248.332 21.4143 248.864 21.5899C249.395 21.7404 249.825 21.941 250.154 22.1919C250.509 22.4427 250.686 22.7813 250.686 23.2077C250.686 23.5087 250.585 23.7595 250.382 23.9602C250.18 24.1358 249.901 24.2737 249.547 24.374C249.218 24.4493 248.839 24.4869 248.408 24.4869C247.852 24.4869 247.219 24.3364 246.51 24.0354C245.827 23.7094 245.081 23.1826 244.271 22.4552L242.069 25.3523C242.879 26.2051 243.866 26.8697 245.03 27.3463Z" fill="url(#paint0_linear_11576_3123)"/>
<path fill-rule="evenodd" clip-rule="evenodd" d="M11.3715 0.606802C14.2062 1.22395 15.9925 4.00114 15.3712 6.85547L10.3618 29.8444C9.7405 32.6601 6.94457 34.473 4.10982 33.8559C1.3139 33.2387 -0.472389 30.4615 0.110095 27.6072L5.11946 4.61829C5.77961 1.76396 8.5367 -0.0103499 11.3715 0.606802Z" fill="url(#paint1_linear_11576_3123)"/>
<path fill-rule="evenodd" clip-rule="evenodd" d="M30.477 0.564322C27.6811 1.22005 25.8948 3.95866 26.5161 6.81298L31.5255 29.8019C32.1468 32.6177 34.9427 34.4305 37.7775 33.8134C40.6123 33.1962 42.3985 30.4191 41.8161 27.5647L36.7679 4.57581C36.1077 1.72148 33.3118 -0.0528302 30.477 0.564322Z" fill="url(#paint2_linear_11576_3123)"/>
<path d="M5.0799 4.38112C5.23523 3.45539 5.81772 2.49109 6.47786 1.71965C8.38065 -0.401812 11.8755 -0.5561 14.0113 1.3725L40.2231 24.94C42.3589 26.8686 42.553 30.1472 40.6114 32.3072C38.7086 34.4287 35.3691 34.6216 33.2721 32.693L8.22532 10.2055C4.69158 7.04258 3.52661 11.9412 3.52661 11.9412L5.0799 4.38112Z" fill="url(#paint3_linear_11576_3123)"/>
<path d="M37.0007 4.30578C36.8454 3.38006 36.2629 2.45433 35.6028 1.68289C33.7 -0.438571 30.2051 -0.554287 28.0693 1.33574L1.85753 24.6332C-0.278248 26.5233 -0.588907 30.149 1.39154 32.2705C3.29432 34.3919 6.67273 34.5077 8.8085 32.5791L33.8553 10.053C37.389 6.92868 38.3084 11.5959 38.3084 11.5959L37.0007 4.30578Z" fill="url(#paint4_linear_11576_3123)"/>
<defs>
<linearGradient id="paint0_linear_11576_3123" x1="264.711" y1="1.97998" x2="230.651" y2="66.6288" gradientUnits="userSpaceOnUse">
<stop offset="0.11746" stop-color="#79D7FF"/>
<stop offset="0.448344" stop-color="#609BFF"/>
<stop offset="0.622114" stop-color="#8B55FF"/>
<stop offset="0.872213" stop-color="#F68DFF"/>
</linearGradient>
<linearGradient id="paint1_linear_11576_3123" x1="-24.8131" y1="10.9391" x2="17.0298" y2="40.6026" gradientUnits="userSpaceOnUse">
<stop offset="0.521178" stop-color="#5B02CD"/>
<stop offset="0.695941" stop-color="#725CFF"/>
</linearGradient>
<linearGradient id="paint2_linear_11576_3123" x1="33.4334" y1="11.4853" x2="62.3101" y2="17.4326" gradientUnits="userSpaceOnUse">
<stop stop-color="#369FFF"/>
<stop offset="0.973" stop-color="#263BF4"/>
</linearGradient>
<linearGradient id="paint3_linear_11576_3123" x1="-19.3041" y1="-16.5396" x2="59.248" y2="49.2886" gradientUnits="userSpaceOnUse">
<stop offset="0.11" stop-color="#7607CC"/>
<stop offset="0.299533" stop-color="#C34FFA"/>
<stop offset="0.434714" stop-color="#6558FF"/>
<stop offset="0.53883" stop-color="#2A66FF"/>
<stop offset="0.751781" stop-color="#4D94FF"/>
<stop offset="0.783905" stop-color="#4D7FFF"/>
</linearGradient>
<linearGradient id="paint4_linear_11576_3123" x1="44.8296" y1="-3.19346" x2="-13.1063" y2="45.5905" gradientUnits="userSpaceOnUse">
<stop offset="0.0847858" stop-color="#79D7FF"/>
<stop offset="0.234045" stop-color="#54CCFF"/>
<stop offset="0.6799" stop-color="#6825F7"/>
</linearGradient>
</defs>
</svg>
