<svg width="30" height="30" viewBox="0 0 30 30" fill="none" xmlns="http://www.w3.org/2000/svg">
<g id="search">
<path id="Union" fill-rule="evenodd" clip-rule="evenodd" d="M22 13C22 17.4183 18.4183 21 14 21C9.58172 21 6 17.4183 6 13C6 8.58172 9.58172 5 14 5C18.4183 5 22 8.58172 22 13ZM19.791 21.1535C18.1569 22.3162 16.1583 23 14 23C8.47715 23 4 18.5228 4 13C4 7.47715 8.47715 3 14 3C19.5228 3 24 7.47715 24 13C24 15.6429 22.9747 18.0463 21.3002 19.8343L25.7331 24.2671C26.1236 24.6577 26.1236 25.2908 25.7331 25.6814C25.3426 26.0719 24.7094 26.0719 24.3189 25.6814L19.791 21.1535Z" fill="#666666"/>
</g>
</svg>
