<svg width="404" height="44" viewBox="0 0 404 44" fill="none" xmlns="http://www.w3.org/2000/svg">
<mask id="path-1-outside-1_12963_1269" maskUnits="userSpaceOnUse" x="0.263916" y="-0.175781" width="404" height="44" fill="black">
<rect fill="white" x="0.263916" y="-0.175781" width="404" height="44"/>
<path d="M4.26392 39.0002V5.40022H12.3279L22.4559 26.0882L32.4399 5.40022H40.4559V39.0002H33.7359V16.7762L25.0479 34.2962H19.7199L10.9839 16.7762V39.0002H4.26392Z"/>
<path d="M45.719 39.0002L57.959 5.40022H65.591L77.831 39.0002H70.727L61.751 13.0322L52.727 39.0002H45.719ZM51.095 31.4642L52.871 26.2322H70.151L71.879 31.4642H51.095Z"/>
<path d="M95.9679 39.5762C92.7679 39.5762 89.9839 38.8722 87.6159 37.4642C85.2479 36.0242 83.3919 34.0242 82.0479 31.4642C80.7359 28.8722 80.0799 25.8642 80.0799 22.4402C80.0799 18.9842 80.7519 15.9442 82.0959 13.3202C83.4719 10.6642 85.4239 8.58422 87.9519 7.08022C90.5119 5.57622 93.5519 4.82422 97.0719 4.82422C101.04 4.82422 104.32 5.78422 106.912 7.70422C109.536 9.59222 111.232 12.2162 112 15.5762H104.512C104.032 14.1362 103.152 13.0162 101.872 12.2162C100.624 11.4162 99.0079 11.0162 97.0239 11.0162C94.8479 11.0162 93.0079 11.4802 91.5039 12.4082C89.9999 13.3362 88.8639 14.6642 88.0959 16.3922C87.3279 18.0882 86.9439 20.1202 86.9439 22.4882C86.9439 24.8562 87.3279 26.8722 88.0959 28.5362C88.8959 30.2002 90.0159 31.4642 91.4559 32.3282C92.9279 33.1922 94.6559 33.6242 96.6399 33.6242C99.5199 33.6242 101.696 32.8562 103.168 31.3202C104.672 29.7522 105.568 27.7682 105.856 25.3682H97.7439V20.3762H112.624V39.0002H106.432L105.904 34.8722C105.2 35.8642 104.384 36.7122 103.456 37.4162C102.528 38.1202 101.44 38.6482 100.192 39.0002C98.9759 39.3842 97.5679 39.5762 95.9679 39.5762Z"/>
<path d="M119.597 39.0002V5.40022H126.317L141.533 28.2002V5.40022H148.253V39.0002H141.533L126.317 16.2482V39.0002H119.597Z"/>
<path d="M155.76 39.0002V5.40022H177.984V10.8242H162.48V19.3202H176.544V24.5522H162.48V33.5762H177.984V39.0002H155.76Z"/>
<path d="M192.622 39.0002V10.8242H182.83V5.40022H209.086V10.8242H199.294V39.0002H192.622Z"/>
<path d="M226.703 39.0002V5.40022H239.471C242.191 5.40022 244.447 5.86422 246.239 6.79222C248.031 7.72022 249.359 8.98422 250.223 10.5842C251.119 12.1522 251.567 13.9442 251.567 15.9602C251.567 17.8162 251.135 19.5442 250.271 21.1442C249.439 22.7122 248.127 23.9922 246.335 24.9842C244.543 25.9762 242.255 26.4722 239.471 26.4722H233.423V39.0002H226.703ZM233.423 21.0482H239.039C241.055 21.0482 242.495 20.5842 243.359 19.6562C244.255 18.7282 244.703 17.4962 244.703 15.9602C244.703 14.3602 244.255 13.1122 243.359 12.2162C242.495 11.3202 241.055 10.8722 239.039 10.8722H233.423V21.0482Z"/>
<path d="M272.887 39.5762C269.623 39.5762 266.743 38.8402 264.247 37.3682C261.751 35.8962 259.783 33.8642 258.343 31.2722C256.935 28.6482 256.231 25.6242 256.231 22.2002C256.231 18.7762 256.935 15.7682 258.343 13.1762C259.783 10.5522 261.751 8.50422 264.247 7.03222C266.743 5.56022 269.623 4.82422 272.887 4.82422C276.183 4.82422 279.079 5.56022 281.575 7.03222C284.103 8.50422 286.055 10.5522 287.431 13.1762C288.839 15.7682 289.543 18.7762 289.543 22.2002C289.543 25.6242 288.839 28.6482 287.431 31.2722C286.055 33.8642 284.103 35.8962 281.575 37.3682C279.079 38.8402 276.183 39.5762 272.887 39.5762ZM272.887 33.5282C274.903 33.5282 276.647 33.0642 278.119 32.1362C279.591 31.2082 280.727 29.9122 281.527 28.2482C282.327 26.5522 282.727 24.5362 282.727 22.2002C282.727 19.8642 282.327 17.8642 281.527 16.2002C280.727 14.5042 279.591 13.1922 278.119 12.2642C276.647 11.3362 274.903 10.8722 272.887 10.8722C270.903 10.8722 269.175 11.3362 267.703 12.2642C266.263 13.1922 265.127 14.5042 264.295 16.2002C263.495 17.8642 263.095 19.8642 263.095 22.2002C263.095 24.5362 263.495 26.5522 264.295 28.2482C265.127 29.9122 266.263 31.2082 267.703 32.1362C269.175 33.0642 270.903 33.5282 272.887 33.5282Z"/>
<path d="M295.982 39.0002V5.40022H302.702V39.0002H295.982Z"/>
<path d="M310.208 39.0002V5.40022H316.928L332.144 28.2002V5.40022H338.864V39.0002H332.144L316.928 16.2482V39.0002H310.208Z"/>
<path d="M354.195 39.0002V10.8242H344.403V5.40022H370.659V10.8242H360.867V39.0002H354.195Z"/>
<path d="M387.542 39.5762C385.11 39.5762 382.934 39.1602 381.014 38.3282C379.126 37.4962 377.622 36.2802 376.502 34.6802C375.382 33.0802 374.806 31.1442 374.774 28.8722H381.878C381.91 29.8322 382.15 30.6962 382.598 31.4642C383.078 32.2322 383.734 32.8402 384.566 33.2882C385.398 33.7362 386.374 33.9602 387.494 33.9602C388.486 33.9602 389.334 33.8002 390.038 33.4802C390.774 33.1602 391.334 32.7122 391.718 32.1362C392.134 31.5602 392.342 30.8562 392.342 30.0242C392.342 29.1282 392.102 28.3602 391.622 27.7202C391.174 27.0802 390.55 26.5362 389.75 26.0882C388.95 25.6402 388.022 25.2402 386.966 24.8882C385.942 24.5042 384.838 24.1202 383.654 23.7362C380.998 22.8722 378.966 21.7202 377.558 20.2802C376.182 18.8402 375.494 16.9202 375.494 14.5202C375.494 12.4722 375.974 10.7282 376.934 9.28822C377.926 7.84822 379.286 6.74422 381.014 5.97622C382.774 5.20822 384.758 4.82422 386.966 4.82422C389.238 4.82422 391.238 5.22422 392.966 6.02422C394.694 6.79222 396.054 7.91222 397.046 9.38422C398.07 10.8562 398.614 12.6002 398.678 14.6162H391.478C391.446 13.8802 391.238 13.2082 390.854 12.6002C390.47 11.9602 389.942 11.4482 389.27 11.0642C388.598 10.6802 387.798 10.4882 386.87 10.4882C386.07 10.4562 385.334 10.5842 384.662 10.8722C384.022 11.1282 383.51 11.5282 383.126 12.0722C382.742 12.5842 382.55 13.2402 382.55 14.0402C382.55 14.8402 382.742 15.5122 383.126 16.0562C383.51 16.5682 384.038 17.0162 384.71 17.4002C385.414 17.7842 386.23 18.1522 387.158 18.5042C388.086 18.8242 389.094 19.1602 390.182 19.5122C391.878 20.0882 393.43 20.7762 394.838 21.5762C396.246 22.3442 397.366 23.3522 398.198 24.6002C399.062 25.8482 399.494 27.4962 399.494 29.5442C399.494 31.3362 399.03 33.0002 398.102 34.5362C397.174 36.0402 395.83 37.2562 394.07 38.1842C392.31 39.1122 390.134 39.5762 387.542 39.5762Z"/>
</mask>
<path d="M4.26392 39.0002V5.40022H12.3279L22.4559 26.0882L32.4399 5.40022H40.4559V39.0002H33.7359V16.7762L25.0479 34.2962H19.7199L10.9839 16.7762V39.0002H4.26392Z" fill="#333333"/>
<path d="M45.719 39.0002L57.959 5.40022H65.591L77.831 39.0002H70.727L61.751 13.0322L52.727 39.0002H45.719ZM51.095 31.4642L52.871 26.2322H70.151L71.879 31.4642H51.095Z" fill="#333333"/>
<path d="M95.9679 39.5762C92.7679 39.5762 89.9839 38.8722 87.6159 37.4642C85.2479 36.0242 83.3919 34.0242 82.0479 31.4642C80.7359 28.8722 80.0799 25.8642 80.0799 22.4402C80.0799 18.9842 80.7519 15.9442 82.0959 13.3202C83.4719 10.6642 85.4239 8.58422 87.9519 7.08022C90.5119 5.57622 93.5519 4.82422 97.0719 4.82422C101.04 4.82422 104.32 5.78422 106.912 7.70422C109.536 9.59222 111.232 12.2162 112 15.5762H104.512C104.032 14.1362 103.152 13.0162 101.872 12.2162C100.624 11.4162 99.0079 11.0162 97.0239 11.0162C94.8479 11.0162 93.0079 11.4802 91.5039 12.4082C89.9999 13.3362 88.8639 14.6642 88.0959 16.3922C87.3279 18.0882 86.9439 20.1202 86.9439 22.4882C86.9439 24.8562 87.3279 26.8722 88.0959 28.5362C88.8959 30.2002 90.0159 31.4642 91.4559 32.3282C92.9279 33.1922 94.6559 33.6242 96.6399 33.6242C99.5199 33.6242 101.696 32.8562 103.168 31.3202C104.672 29.7522 105.568 27.7682 105.856 25.3682H97.7439V20.3762H112.624V39.0002H106.432L105.904 34.8722C105.2 35.8642 104.384 36.7122 103.456 37.4162C102.528 38.1202 101.44 38.6482 100.192 39.0002C98.9759 39.3842 97.5679 39.5762 95.9679 39.5762Z" fill="#333333"/>
<path d="M119.597 39.0002V5.40022H126.317L141.533 28.2002V5.40022H148.253V39.0002H141.533L126.317 16.2482V39.0002H119.597Z" fill="#333333"/>
<path d="M155.76 39.0002V5.40022H177.984V10.8242H162.48V19.3202H176.544V24.5522H162.48V33.5762H177.984V39.0002H155.76Z" fill="#333333"/>
<path d="M192.622 39.0002V10.8242H182.83V5.40022H209.086V10.8242H199.294V39.0002H192.622Z" fill="#333333"/>
<path d="M226.703 39.0002V5.40022H239.471C242.191 5.40022 244.447 5.86422 246.239 6.79222C248.031 7.72022 249.359 8.98422 250.223 10.5842C251.119 12.1522 251.567 13.9442 251.567 15.9602C251.567 17.8162 251.135 19.5442 250.271 21.1442C249.439 22.7122 248.127 23.9922 246.335 24.9842C244.543 25.9762 242.255 26.4722 239.471 26.4722H233.423V39.0002H226.703ZM233.423 21.0482H239.039C241.055 21.0482 242.495 20.5842 243.359 19.6562C244.255 18.7282 244.703 17.4962 244.703 15.9602C244.703 14.3602 244.255 13.1122 243.359 12.2162C242.495 11.3202 241.055 10.8722 239.039 10.8722H233.423V21.0482Z" fill="#333333"/>
<path d="M272.887 39.5762C269.623 39.5762 266.743 38.8402 264.247 37.3682C261.751 35.8962 259.783 33.8642 258.343 31.2722C256.935 28.6482 256.231 25.6242 256.231 22.2002C256.231 18.7762 256.935 15.7682 258.343 13.1762C259.783 10.5522 261.751 8.50422 264.247 7.03222C266.743 5.56022 269.623 4.82422 272.887 4.82422C276.183 4.82422 279.079 5.56022 281.575 7.03222C284.103 8.50422 286.055 10.5522 287.431 13.1762C288.839 15.7682 289.543 18.7762 289.543 22.2002C289.543 25.6242 288.839 28.6482 287.431 31.2722C286.055 33.8642 284.103 35.8962 281.575 37.3682C279.079 38.8402 276.183 39.5762 272.887 39.5762ZM272.887 33.5282C274.903 33.5282 276.647 33.0642 278.119 32.1362C279.591 31.2082 280.727 29.9122 281.527 28.2482C282.327 26.5522 282.727 24.5362 282.727 22.2002C282.727 19.8642 282.327 17.8642 281.527 16.2002C280.727 14.5042 279.591 13.1922 278.119 12.2642C276.647 11.3362 274.903 10.8722 272.887 10.8722C270.903 10.8722 269.175 11.3362 267.703 12.2642C266.263 13.1922 265.127 14.5042 264.295 16.2002C263.495 17.8642 263.095 19.8642 263.095 22.2002C263.095 24.5362 263.495 26.5522 264.295 28.2482C265.127 29.9122 266.263 31.2082 267.703 32.1362C269.175 33.0642 270.903 33.5282 272.887 33.5282Z" fill="#333333"/>
<path d="M295.982 39.0002V5.40022H302.702V39.0002H295.982Z" fill="#333333"/>
<path d="M310.208 39.0002V5.40022H316.928L332.144 28.2002V5.40022H338.864V39.0002H332.144L316.928 16.2482V39.0002H310.208Z" fill="#333333"/>
<path d="M354.195 39.0002V10.8242H344.403V5.40022H370.659V10.8242H360.867V39.0002H354.195Z" fill="#333333"/>
<path d="M387.542 39.5762C385.11 39.5762 382.934 39.1602 381.014 38.3282C379.126 37.4962 377.622 36.2802 376.502 34.6802C375.382 33.0802 374.806 31.1442 374.774 28.8722H381.878C381.91 29.8322 382.15 30.6962 382.598 31.4642C383.078 32.2322 383.734 32.8402 384.566 33.2882C385.398 33.7362 386.374 33.9602 387.494 33.9602C388.486 33.9602 389.334 33.8002 390.038 33.4802C390.774 33.1602 391.334 32.7122 391.718 32.1362C392.134 31.5602 392.342 30.8562 392.342 30.0242C392.342 29.1282 392.102 28.3602 391.622 27.7202C391.174 27.0802 390.55 26.5362 389.75 26.0882C388.95 25.6402 388.022 25.2402 386.966 24.8882C385.942 24.5042 384.838 24.1202 383.654 23.7362C380.998 22.8722 378.966 21.7202 377.558 20.2802C376.182 18.8402 375.494 16.9202 375.494 14.5202C375.494 12.4722 375.974 10.7282 376.934 9.28822C377.926 7.84822 379.286 6.74422 381.014 5.97622C382.774 5.20822 384.758 4.82422 386.966 4.82422C389.238 4.82422 391.238 5.22422 392.966 6.02422C394.694 6.79222 396.054 7.91222 397.046 9.38422C398.07 10.8562 398.614 12.6002 398.678 14.6162H391.478C391.446 13.8802 391.238 13.2082 390.854 12.6002C390.47 11.9602 389.942 11.4482 389.27 11.0642C388.598 10.6802 387.798 10.4882 386.87 10.4882C386.07 10.4562 385.334 10.5842 384.662 10.8722C384.022 11.1282 383.51 11.5282 383.126 12.0722C382.742 12.5842 382.55 13.2402 382.55 14.0402C382.55 14.8402 382.742 15.5122 383.126 16.0562C383.51 16.5682 384.038 17.0162 384.71 17.4002C385.414 17.7842 386.23 18.1522 387.158 18.5042C388.086 18.8242 389.094 19.1602 390.182 19.5122C391.878 20.0882 393.43 20.7762 394.838 21.5762C396.246 22.3442 397.366 23.3522 398.198 24.6002C399.062 25.8482 399.494 27.4962 399.494 29.5442C399.494 31.3362 399.03 33.0002 398.102 34.5362C397.174 36.0402 395.83 37.2562 394.07 38.1842C392.31 39.1122 390.134 39.5762 387.542 39.5762Z" fill="#333333"/>
<path d="M4.26392 39.0002V5.40022H12.3279L22.4559 26.0882L32.4399 5.40022H40.4559V39.0002H33.7359V16.7762L25.0479 34.2962H19.7199L10.9839 16.7762V39.0002H4.26392Z" stroke="white" stroke-width="8" mask="url(#path-1-outside-1_12963_1269)"/>
<path d="M45.719 39.0002L57.959 5.40022H65.591L77.831 39.0002H70.727L61.751 13.0322L52.727 39.0002H45.719ZM51.095 31.4642L52.871 26.2322H70.151L71.879 31.4642H51.095Z" stroke="white" stroke-width="8" mask="url(#path-1-outside-1_12963_1269)"/>
<path d="M95.9679 39.5762C92.7679 39.5762 89.9839 38.8722 87.6159 37.4642C85.2479 36.0242 83.3919 34.0242 82.0479 31.4642C80.7359 28.8722 80.0799 25.8642 80.0799 22.4402C80.0799 18.9842 80.7519 15.9442 82.0959 13.3202C83.4719 10.6642 85.4239 8.58422 87.9519 7.08022C90.5119 5.57622 93.5519 4.82422 97.0719 4.82422C101.04 4.82422 104.32 5.78422 106.912 7.70422C109.536 9.59222 111.232 12.2162 112 15.5762H104.512C104.032 14.1362 103.152 13.0162 101.872 12.2162C100.624 11.4162 99.0079 11.0162 97.0239 11.0162C94.8479 11.0162 93.0079 11.4802 91.5039 12.4082C89.9999 13.3362 88.8639 14.6642 88.0959 16.3922C87.3279 18.0882 86.9439 20.1202 86.9439 22.4882C86.9439 24.8562 87.3279 26.8722 88.0959 28.5362C88.8959 30.2002 90.0159 31.4642 91.4559 32.3282C92.9279 33.1922 94.6559 33.6242 96.6399 33.6242C99.5199 33.6242 101.696 32.8562 103.168 31.3202C104.672 29.7522 105.568 27.7682 105.856 25.3682H97.7439V20.3762H112.624V39.0002H106.432L105.904 34.8722C105.2 35.8642 104.384 36.7122 103.456 37.4162C102.528 38.1202 101.44 38.6482 100.192 39.0002C98.9759 39.3842 97.5679 39.5762 95.9679 39.5762Z" stroke="white" stroke-width="8" mask="url(#path-1-outside-1_12963_1269)"/>
<path d="M119.597 39.0002V5.40022H126.317L141.533 28.2002V5.40022H148.253V39.0002H141.533L126.317 16.2482V39.0002H119.597Z" stroke="white" stroke-width="8" mask="url(#path-1-outside-1_12963_1269)"/>
<path d="M155.76 39.0002V5.40022H177.984V10.8242H162.48V19.3202H176.544V24.5522H162.48V33.5762H177.984V39.0002H155.76Z" stroke="white" stroke-width="8" mask="url(#path-1-outside-1_12963_1269)"/>
<path d="M192.622 39.0002V10.8242H182.83V5.40022H209.086V10.8242H199.294V39.0002H192.622Z" stroke="white" stroke-width="8" mask="url(#path-1-outside-1_12963_1269)"/>
<path d="M226.703 39.0002V5.40022H239.471C242.191 5.40022 244.447 5.86422 246.239 6.79222C248.031 7.72022 249.359 8.98422 250.223 10.5842C251.119 12.1522 251.567 13.9442 251.567 15.9602C251.567 17.8162 251.135 19.5442 250.271 21.1442C249.439 22.7122 248.127 23.9922 246.335 24.9842C244.543 25.9762 242.255 26.4722 239.471 26.4722H233.423V39.0002H226.703ZM233.423 21.0482H239.039C241.055 21.0482 242.495 20.5842 243.359 19.6562C244.255 18.7282 244.703 17.4962 244.703 15.9602C244.703 14.3602 244.255 13.1122 243.359 12.2162C242.495 11.3202 241.055 10.8722 239.039 10.8722H233.423V21.0482Z" stroke="white" stroke-width="8" mask="url(#path-1-outside-1_12963_1269)"/>
<path d="M272.887 39.5762C269.623 39.5762 266.743 38.8402 264.247 37.3682C261.751 35.8962 259.783 33.8642 258.343 31.2722C256.935 28.6482 256.231 25.6242 256.231 22.2002C256.231 18.7762 256.935 15.7682 258.343 13.1762C259.783 10.5522 261.751 8.50422 264.247 7.03222C266.743 5.56022 269.623 4.82422 272.887 4.82422C276.183 4.82422 279.079 5.56022 281.575 7.03222C284.103 8.50422 286.055 10.5522 287.431 13.1762C288.839 15.7682 289.543 18.7762 289.543 22.2002C289.543 25.6242 288.839 28.6482 287.431 31.2722C286.055 33.8642 284.103 35.8962 281.575 37.3682C279.079 38.8402 276.183 39.5762 272.887 39.5762ZM272.887 33.5282C274.903 33.5282 276.647 33.0642 278.119 32.1362C279.591 31.2082 280.727 29.9122 281.527 28.2482C282.327 26.5522 282.727 24.5362 282.727 22.2002C282.727 19.8642 282.327 17.8642 281.527 16.2002C280.727 14.5042 279.591 13.1922 278.119 12.2642C276.647 11.3362 274.903 10.8722 272.887 10.8722C270.903 10.8722 269.175 11.3362 267.703 12.2642C266.263 13.1922 265.127 14.5042 264.295 16.2002C263.495 17.8642 263.095 19.8642 263.095 22.2002C263.095 24.5362 263.495 26.5522 264.295 28.2482C265.127 29.9122 266.263 31.2082 267.703 32.1362C269.175 33.0642 270.903 33.5282 272.887 33.5282Z" stroke="white" stroke-width="8" mask="url(#path-1-outside-1_12963_1269)"/>
<path d="M295.982 39.0002V5.40022H302.702V39.0002H295.982Z" stroke="white" stroke-width="8" mask="url(#path-1-outside-1_12963_1269)"/>
<path d="M310.208 39.0002V5.40022H316.928L332.144 28.2002V5.40022H338.864V39.0002H332.144L316.928 16.2482V39.0002H310.208Z" stroke="white" stroke-width="8" mask="url(#path-1-outside-1_12963_1269)"/>
<path d="M354.195 39.0002V10.8242H344.403V5.40022H370.659V10.8242H360.867V39.0002H354.195Z" stroke="white" stroke-width="8" mask="url(#path-1-outside-1_12963_1269)"/>
<path d="M387.542 39.5762C385.11 39.5762 382.934 39.1602 381.014 38.3282C379.126 37.4962 377.622 36.2802 376.502 34.6802C375.382 33.0802 374.806 31.1442 374.774 28.8722H381.878C381.91 29.8322 382.15 30.6962 382.598 31.4642C383.078 32.2322 383.734 32.8402 384.566 33.2882C385.398 33.7362 386.374 33.9602 387.494 33.9602C388.486 33.9602 389.334 33.8002 390.038 33.4802C390.774 33.1602 391.334 32.7122 391.718 32.1362C392.134 31.5602 392.342 30.8562 392.342 30.0242C392.342 29.1282 392.102 28.3602 391.622 27.7202C391.174 27.0802 390.55 26.5362 389.75 26.0882C388.95 25.6402 388.022 25.2402 386.966 24.8882C385.942 24.5042 384.838 24.1202 383.654 23.7362C380.998 22.8722 378.966 21.7202 377.558 20.2802C376.182 18.8402 375.494 16.9202 375.494 14.5202C375.494 12.4722 375.974 10.7282 376.934 9.28822C377.926 7.84822 379.286 6.74422 381.014 5.97622C382.774 5.20822 384.758 4.82422 386.966 4.82422C389.238 4.82422 391.238 5.22422 392.966 6.02422C394.694 6.79222 396.054 7.91222 397.046 9.38422C398.07 10.8562 398.614 12.6002 398.678 14.6162H391.478C391.446 13.8802 391.238 13.2082 390.854 12.6002C390.47 11.9602 389.942 11.4482 389.27 11.0642C388.598 10.6802 387.798 10.4882 386.87 10.4882C386.07 10.4562 385.334 10.5842 384.662 10.8722C384.022 11.1282 383.51 11.5282 383.126 12.0722C382.742 12.5842 382.55 13.2402 382.55 14.0402C382.55 14.8402 382.742 15.5122 383.126 16.0562C383.51 16.5682 384.038 17.0162 384.71 17.4002C385.414 17.7842 386.23 18.1522 387.158 18.5042C388.086 18.8242 389.094 19.1602 390.182 19.5122C391.878 20.0882 393.43 20.7762 394.838 21.5762C396.246 22.3442 397.366 23.3522 398.198 24.6002C399.062 25.8482 399.494 27.4962 399.494 29.5442C399.494 31.3362 399.03 33.0002 398.102 34.5362C397.174 36.0402 395.83 37.2562 394.07 38.1842C392.31 39.1122 390.134 39.5762 387.542 39.5762Z" stroke="white" stroke-width="8" mask="url(#path-1-outside-1_12963_1269)"/>
</svg>
